# xmcd
#
# Track frame offsets:
#	150
#	9408
#	19492
#	33351
#	45534
#	59080
#	71963
#	86634
#	99580
#	113201
#	123721
#	137555
#
# Disc length: 1989 seconds
#
# Revision: 1
# Processed by: cddbd v1.5.2PL0 Copyright (c) Steve Scherf et al.
# Submitted via: audiograbber 1.83.01
#
DISCID=ac07c30c
DTITLE=Willie Nelson - Make Way For Willie Nelson
DYEAR=1967
DGENRE=Country
TTITLE0=Make Way For A Better Man
TTITLE1=Some Other World
TTITLE2=Have I Stayed Away Too Long?
TTITLE3=Born To Lose
TTITLE4=Lovin' Lies
TTITLE5=You Made Me Live, Love And Die
TTITLE6=What Now My Love
TTITLE7=Teach Me To Forget
TTITLE8=Mansion On The Hill
TTITLE9=If It's Wrong To Love You
TTITLE10=Have I Lately Told You That I Love You
TTITLE11=One In A Row
EXTD=
EXTT0=
EXTT1=
EXTT2=
EXTT3=
EXTT4=
EXTT5=
EXTT6=
EXTT7=
EXTT8=
EXTT9=
EXTT10=
EXTT11=
PLAYORDER=
